<?xml version="1.0" encoding="utf-8"?>
<!-- Generator: Adobe Illustrator 19.0.0, SVG Export Plug-In . SVG Version: 6.00 Build 0)  -->
<svg version="1.1" id="Calque_1" xmlns="http://www.w3.org/2000/svg" xmlns:xlink="http://www.w3.org/1999/xlink" x="0px" y="0px"
	 viewBox="499 -970 1957 2500" style="enable-background:new 499 -970 1957 2500;" xml:space="preserve">
<style type="text/css">
	.st0{fill:#BC1142;}
	.st1{fill:none;stroke:#000000;stroke-width:105;stroke-miterlimit:10;}
	.st2{fill:none;stroke:#000000;stroke-width:40;stroke-miterlimit:10;}
</style>
<path d="M2038.3-223.5c-106.7-61.5-305.2-29.8-325.7-9.3c-175.8-128.8-299.8-112.4-494.2,3C956.8-345.2,683.4-89,684.1,137.5
	L666.4,169c-138.4,84.2-262.9,354.6-68.2,574.5c12.7,68.8,34,118.2,53,172.9c28.4,220.4,213.8,323.7,262.7,335.9
	c71.6,54.6,147.9,106.3,251.2,142.6c97.3,100.4,202.8,138.6,308.8,138.6c1.6,0,216.2-38.2,313.5-138.6
	c103.2-36.3,179.5-88,251.2-142.6c48.9-12.2,234.2-115.4,262.6-335.9c19-54.7,40.3-104.1,53-172.9
	c194.7-219.9,70.2-490.4-68.2-574.5l-17.7-31.5C2221.3-88.4,2124.6-182.4,2038.3-223.5"/>
<path class="st0" d="M1767.5,841.2c0.8,144.7-125.7,262.7-282.7,263.4c-157,0.8-284.9-115.9-285.7-260.7c0-0.9,0-1.8,0-2.8
	c-0.8-144.7,125.7-262.7,282.7-263.4c157-0.8,284.9,115.9,285.7,260.7L1767.5,841.2 M1318.8,92.6c117.8,77.2,139,252,47.4,390.6
	c-91.6,138.6-261.3,188.4-379,111.2c-117.8-77.2-139-252-47.4-390.6C1031.4,65.3,1201.1,15.5,1318.8,92.6 M1636.7,78.7
	c-117.7,77.1-139,252-47.4,390.6c91.6,138.6,261.3,188.4,379,111.2c117.8-77.1,139-252,47.4-390.6
	C1924.1,51.3,1754.4,1.5,1636.7,78.7 M730.3,218.8c127.1-34.1,42.9,526-60.5,480C556,607.3,519.3,339.2,730.3,218.8 M2199.5,211.8
	c-127.2-34.1-42.9,526,60.5,480C2373.9,600.3,2410.5,332.2,2199.5,211.8 M1767.6-205.3c219.4-37,402,93.3,394.6,331.2
	C2155,217.1,1686.7-191.7,1767.6-205.3 M1161.4-212.3c-219.4-37.1-402,93.3-394.6,331.2C774,210.2,1242.2-198.7,1161.4-212.3
	 M1476.5-267.8c-131-3.4-256.6,97.2-256.9,155.5c-0.4,70.9,103.5,143.5,257.8,145.3C1635,34.2,1735.5-25,1736-98.2
	C1736.6-181.1,1592.7-269,1476.5-267.8L1476.5-267.8 M1484.5,1186.1c114.2-5,267.4,36.8,267.7,92.2c1.9,53.8-138.9,175.3-275.2,173
	c-141.2,6.1-279.6-115.6-277.8-157.8C1197.1,1231.5,1371.1,1183.3,1484.5,1186.1 M1062.8,857.8c81.3,97.9,118.3,270,50.5,320.7
	c-64.2,38.7-220,22.8-330.8-136.4c-74.7-133.5-65.1-269.4-12.6-309.3C848.4,685,969.6,749.6,1062.8,857.8L1062.8,857.8 M1890,826.7
	c-88,103-136.9,290.9-72.8,351.4c61.3,47,226,40.4,347.7-128.3c88.3-113.4,58.7-302.7,8.3-352.9
	C2098.2,638.9,1990.6,713.1,1890,826.7L1890,826.7"/>
<path class="st1" d="M1952.2-735.4C1294.7-891.2,1432.5-302,1432.5-302"/>
<line class="st2" x1="1969" y1="-615.1" x2="1969" y2="-403.1"/>
<line class="st2" x1="2060.3" y1="-668.7" x2="2246.5" y2="-567.4"/>
<line class="st2" x1="2050.5" y1="-796.2" x2="2242.4" y2="-886.5"/>
</svg>
